<mxfile host="app.diagrams.net" agent="Mozilla/5.0 (Macintosh; Intel Mac OS X 10_15_7) AppleWebKit/605.1.15 (KHTML, like Gecko) Version/17.6 Safari/605.1.15" version="24.8.3">
  <diagram name="Page-1" id="bjZnij2RnVKSVBv8xiQF">
    <mxGraphModel dx="1665" dy="728" grid="1" gridSize="10" guides="1" tooltips="1" connect="1" arrows="1" fold="1" page="1" pageScale="1" pageWidth="827" pageHeight="1169" math="0" shadow="0">
      <root>
        <mxCell id="0" />
        <mxCell id="1" parent="0" />
        <mxCell id="YcM32KmTqc_H7fKUBVU9-1" value="Topic: PokÃ©mon Figures" style="rounded=0;whiteSpace=wrap;html=1;fillColor=#f8cecc;strokeColor=#b85450;fontStyle=1;fontSize=18;" parent="1" vertex="1">
          <mxGeometry x="-100" y="50" width="240" height="40" as="geometry" />
        </mxCell>
        <mxCell id="_hJp1TgORk9aVQzra_ik-4" style="edgeStyle=orthogonalEdgeStyle;rounded=0;orthogonalLoop=1;jettySize=auto;html=1;exitX=1;exitY=0.5;exitDx=0;exitDy=0;entryX=0.5;entryY=0;entryDx=0;entryDy=0;startArrow=classic;startFill=1;fillColor=#f8cecc;strokeColor=#b85450;" edge="1" parent="1" source="YcM32KmTqc_H7fKUBVU9-2" target="YcM32KmTqc_H7fKUBVU9-6">
          <mxGeometry relative="1" as="geometry" />
        </mxCell>
        <mxCell id="_hJp1TgORk9aVQzra_ik-25" style="edgeStyle=orthogonalEdgeStyle;rounded=0;orthogonalLoop=1;jettySize=auto;html=1;exitX=1;exitY=1;exitDx=0;exitDy=0;entryX=0;entryY=0;entryDx=0;entryDy=0;fillColor=#f8cecc;strokeColor=#b85450;" edge="1" parent="1" source="YcM32KmTqc_H7fKUBVU9-2" target="_hJp1TgORk9aVQzra_ik-7">
          <mxGeometry relative="1" as="geometry">
            <Array as="points">
              <mxPoint x="382" y="350" />
              <mxPoint x="550" y="350" />
              <mxPoint x="550" y="369" />
            </Array>
          </mxGeometry>
        </mxCell>
        <mxCell id="_hJp1TgORk9aVQzra_ik-26" style="edgeStyle=orthogonalEdgeStyle;rounded=0;orthogonalLoop=1;jettySize=auto;html=1;exitX=1;exitY=1;exitDx=0;exitDy=0;entryX=0;entryY=0;entryDx=0;entryDy=0;fillColor=#f8cecc;strokeColor=#b85450;" edge="1" parent="1" source="YcM32KmTqc_H7fKUBVU9-2" target="_hJp1TgORk9aVQzra_ik-6">
          <mxGeometry relative="1" as="geometry">
            <Array as="points">
              <mxPoint x="382" y="350" />
              <mxPoint x="340" y="350" />
              <mxPoint x="340" y="369" />
            </Array>
          </mxGeometry>
        </mxCell>
        <mxCell id="_hJp1TgORk9aVQzra_ik-27" style="edgeStyle=orthogonalEdgeStyle;rounded=0;orthogonalLoop=1;jettySize=auto;html=1;exitX=1;exitY=1;exitDx=0;exitDy=0;entryX=0;entryY=0;entryDx=0;entryDy=0;fillColor=#f8cecc;strokeColor=#b85450;" edge="1" parent="1" source="YcM32KmTqc_H7fKUBVU9-2" target="_hJp1TgORk9aVQzra_ik-11">
          <mxGeometry relative="1" as="geometry">
            <Array as="points">
              <mxPoint x="382" y="350" />
              <mxPoint x="340" y="350" />
              <mxPoint x="340" y="503" />
            </Array>
          </mxGeometry>
        </mxCell>
        <mxCell id="_hJp1TgORk9aVQzra_ik-28" style="edgeStyle=orthogonalEdgeStyle;rounded=0;orthogonalLoop=1;jettySize=auto;html=1;exitX=1;exitY=1;exitDx=0;exitDy=0;entryX=0;entryY=0;entryDx=0;entryDy=0;fillColor=#f8cecc;strokeColor=#b85450;startArrow=classic;startFill=1;" edge="1" parent="1" source="YcM32KmTqc_H7fKUBVU9-2" target="_hJp1TgORk9aVQzra_ik-17">
          <mxGeometry relative="1" as="geometry">
            <Array as="points">
              <mxPoint x="382" y="350" />
              <mxPoint x="550" y="350" />
              <mxPoint x="550" y="503" />
            </Array>
          </mxGeometry>
        </mxCell>
        <mxCell id="YcM32KmTqc_H7fKUBVU9-2" value="&lt;div&gt;&lt;b&gt;Welcome Page&lt;/b&gt;&lt;/div&gt;index.html" style="ellipse;whiteSpace=wrap;html=1;" parent="1" vertex="1">
          <mxGeometry x="280" y="140" width="120" height="80" as="geometry" />
        </mxCell>
        <mxCell id="_hJp1TgORk9aVQzra_ik-43" style="edgeStyle=orthogonalEdgeStyle;rounded=0;orthogonalLoop=1;jettySize=auto;html=1;exitX=0;exitY=0.5;exitDx=0;exitDy=0;startArrow=classic;startFill=1;" edge="1" parent="1" source="YcM32KmTqc_H7fKUBVU9-3" target="YcM32KmTqc_H7fKUBVU9-4">
          <mxGeometry relative="1" as="geometry" />
        </mxCell>
        <mxCell id="_hJp1TgORk9aVQzra_ik-44" style="edgeStyle=orthogonalEdgeStyle;rounded=0;orthogonalLoop=1;jettySize=auto;html=1;exitX=0.5;exitY=1;exitDx=0;exitDy=0;" edge="1" parent="1" source="YcM32KmTqc_H7fKUBVU9-3" target="YcM32KmTqc_H7fKUBVU9-8">
          <mxGeometry relative="1" as="geometry" />
        </mxCell>
        <mxCell id="_hJp1TgORk9aVQzra_ik-50" style="edgeStyle=orthogonalEdgeStyle;rounded=0;orthogonalLoop=1;jettySize=auto;html=1;exitX=0.5;exitY=0;exitDx=0;exitDy=0;entryX=0;entryY=0.5;entryDx=0;entryDy=0;startArrow=classic;startFill=1;" edge="1" parent="1" source="YcM32KmTqc_H7fKUBVU9-3" target="YcM32KmTqc_H7fKUBVU9-2">
          <mxGeometry relative="1" as="geometry" />
        </mxCell>
        <mxCell id="YcM32KmTqc_H7fKUBVU9-3" value="&lt;div&gt;&lt;b&gt;Login Page:&lt;/b&gt;&lt;/div&gt;login.html" style="ellipse;whiteSpace=wrap;html=1;" parent="1" vertex="1">
          <mxGeometry x="80" y="200" width="120" height="60" as="geometry" />
        </mxCell>
        <mxCell id="_hJp1TgORk9aVQzra_ik-45" style="edgeStyle=orthogonalEdgeStyle;rounded=0;orthogonalLoop=1;jettySize=auto;html=1;exitX=0.5;exitY=1;exitDx=0;exitDy=0;entryX=0;entryY=0.5;entryDx=0;entryDy=0;" edge="1" parent="1" source="YcM32KmTqc_H7fKUBVU9-4" target="YcM32KmTqc_H7fKUBVU9-8">
          <mxGeometry relative="1" as="geometry" />
        </mxCell>
        <mxCell id="_hJp1TgORk9aVQzra_ik-53" style="edgeStyle=orthogonalEdgeStyle;rounded=0;orthogonalLoop=1;jettySize=auto;html=1;exitX=0;exitY=0.5;exitDx=0;exitDy=0;entryX=0;entryY=1;entryDx=0;entryDy=0;fillColor=#e1d5e7;strokeColor=#9673a6;" edge="1" parent="1" source="YcM32KmTqc_H7fKUBVU9-4" target="YcM32KmTqc_H7fKUBVU9-2">
          <mxGeometry relative="1" as="geometry">
            <Array as="points">
              <mxPoint x="-100" y="230" />
              <mxPoint x="-100" y="440" />
              <mxPoint x="298" y="440" />
            </Array>
          </mxGeometry>
        </mxCell>
        <mxCell id="YcM32KmTqc_H7fKUBVU9-4" value="&lt;div&gt;&lt;b&gt;Registration Page:&lt;/b&gt;&lt;/div&gt;registeration.html" style="ellipse;whiteSpace=wrap;html=1;" parent="1" vertex="1">
          <mxGeometry x="-80" y="200" width="120" height="60" as="geometry" />
        </mxCell>
        <mxCell id="_hJp1TgORk9aVQzra_ik-52" style="edgeStyle=orthogonalEdgeStyle;rounded=0;orthogonalLoop=1;jettySize=auto;html=1;exitX=1;exitY=0.5;exitDx=0;exitDy=0;entryX=0;entryY=1;entryDx=0;entryDy=0;fillColor=#e1d5e7;strokeColor=#9673a6;" edge="1" parent="1" source="YcM32KmTqc_H7fKUBVU9-5" target="YcM32KmTqc_H7fKUBVU9-2">
          <mxGeometry relative="1" as="geometry" />
        </mxCell>
        <mxCell id="_hJp1TgORk9aVQzra_ik-54" style="edgeStyle=orthogonalEdgeStyle;rounded=0;orthogonalLoop=1;jettySize=auto;html=1;exitX=1;exitY=0;exitDx=0;exitDy=0;entryX=1;entryY=0.5;entryDx=0;entryDy=0;" edge="1" parent="1" source="YcM32KmTqc_H7fKUBVU9-5" target="YcM32KmTqc_H7fKUBVU9-3">
          <mxGeometry relative="1" as="geometry">
            <Array as="points">
              <mxPoint x="220" y="369" />
              <mxPoint x="220" y="230" />
            </Array>
          </mxGeometry>
        </mxCell>
        <mxCell id="YcM32KmTqc_H7fKUBVU9-5" value="&lt;div&gt;&lt;b&gt;Logout Page:&lt;/b&gt;&lt;/div&gt;logout.html" style="ellipse;whiteSpace=wrap;html=1;" parent="1" vertex="1">
          <mxGeometry x="80" y="360" width="120" height="60" as="geometry" />
        </mxCell>
        <mxCell id="_hJp1TgORk9aVQzra_ik-10" style="edgeStyle=orthogonalEdgeStyle;rounded=0;orthogonalLoop=1;jettySize=auto;html=1;exitX=1;exitY=0.5;exitDx=0;exitDy=0;entryX=0;entryY=0.5;entryDx=0;entryDy=0;fillColor=#dae8fc;strokeColor=#6c8ebf;startArrow=classic;startFill=1;" edge="1" parent="1" source="YcM32KmTqc_H7fKUBVU9-6" target="YcM32KmTqc_H7fKUBVU9-7">
          <mxGeometry relative="1" as="geometry" />
        </mxCell>
        <mxCell id="_hJp1TgORk9aVQzra_ik-36" style="edgeStyle=orthogonalEdgeStyle;rounded=0;orthogonalLoop=1;jettySize=auto;html=1;exitX=0.5;exitY=1;exitDx=0;exitDy=0;entryX=1;entryY=0.5;entryDx=0;entryDy=0;startArrow=classic;startFill=1;fillColor=#d5e8d4;strokeColor=#82b366;" edge="1" parent="1" source="YcM32KmTqc_H7fKUBVU9-6" target="_hJp1TgORk9aVQzra_ik-6">
          <mxGeometry relative="1" as="geometry" />
        </mxCell>
        <mxCell id="_hJp1TgORk9aVQzra_ik-37" style="edgeStyle=orthogonalEdgeStyle;rounded=0;orthogonalLoop=1;jettySize=auto;html=1;exitX=0.5;exitY=1;exitDx=0;exitDy=0;entryX=0;entryY=0.5;entryDx=0;entryDy=0;startArrow=classic;startFill=1;fillColor=#d5e8d4;strokeColor=#82b366;" edge="1" parent="1" source="YcM32KmTqc_H7fKUBVU9-6" target="_hJp1TgORk9aVQzra_ik-7">
          <mxGeometry relative="1" as="geometry" />
        </mxCell>
        <mxCell id="_hJp1TgORk9aVQzra_ik-38" style="edgeStyle=orthogonalEdgeStyle;rounded=0;orthogonalLoop=1;jettySize=auto;html=1;exitX=0.5;exitY=1;exitDx=0;exitDy=0;entryX=1;entryY=0.5;entryDx=0;entryDy=0;startArrow=classic;startFill=1;fillColor=#d5e8d4;strokeColor=#82b366;" edge="1" parent="1" source="YcM32KmTqc_H7fKUBVU9-6" target="_hJp1TgORk9aVQzra_ik-11">
          <mxGeometry relative="1" as="geometry" />
        </mxCell>
        <mxCell id="_hJp1TgORk9aVQzra_ik-39" style="edgeStyle=orthogonalEdgeStyle;rounded=0;orthogonalLoop=1;jettySize=auto;html=1;exitX=0.5;exitY=1;exitDx=0;exitDy=0;entryX=0;entryY=0.5;entryDx=0;entryDy=0;startArrow=classic;startFill=1;fillColor=#d5e8d4;strokeColor=#82b366;" edge="1" parent="1" source="YcM32KmTqc_H7fKUBVU9-6" target="_hJp1TgORk9aVQzra_ik-17">
          <mxGeometry relative="1" as="geometry" />
        </mxCell>
        <mxCell id="YcM32KmTqc_H7fKUBVU9-6" value="&lt;div&gt;&lt;b&gt;Show category:&lt;/b&gt;&lt;/div&gt;&amp;lt;categoryName&amp;gt;List.html&lt;div&gt;/ mainList.html&lt;/div&gt;" style="ellipse;whiteSpace=wrap;html=1;" parent="1" vertex="1">
          <mxGeometry x="460" y="240" width="160" height="60" as="geometry" />
        </mxCell>
        <mxCell id="_hJp1TgORk9aVQzra_ik-9" style="edgeStyle=orthogonalEdgeStyle;rounded=0;orthogonalLoop=1;jettySize=auto;html=1;exitX=0.5;exitY=0;exitDx=0;exitDy=0;entryX=1;entryY=0;entryDx=0;entryDy=0;fillColor=#e1d5e7;strokeColor=#9673a6;" edge="1" parent="1" source="YcM32KmTqc_H7fKUBVU9-7" target="YcM32KmTqc_H7fKUBVU9-2">
          <mxGeometry relative="1" as="geometry">
            <Array as="points">
              <mxPoint x="800" y="152" />
            </Array>
          </mxGeometry>
        </mxCell>
        <mxCell id="YcM32KmTqc_H7fKUBVU9-7" value="&lt;div&gt;&lt;b&gt;Show product:&lt;/b&gt;&lt;/div&gt;&amp;lt;product_id&amp;gt;.html" style="ellipse;whiteSpace=wrap;html=1;" parent="1" vertex="1">
          <mxGeometry x="720" y="240" width="160" height="60" as="geometry" />
        </mxCell>
        <mxCell id="_hJp1TgORk9aVQzra_ik-46" style="edgeStyle=orthogonalEdgeStyle;rounded=0;orthogonalLoop=1;jettySize=auto;html=1;exitX=0.5;exitY=1;exitDx=0;exitDy=0;" edge="1" parent="1" source="YcM32KmTqc_H7fKUBVU9-8" target="YcM32KmTqc_H7fKUBVU9-5">
          <mxGeometry relative="1" as="geometry" />
        </mxCell>
        <mxCell id="YcM32KmTqc_H7fKUBVU9-8" value="&lt;div&gt;&lt;b&gt;Customer Information:&lt;/b&gt;&lt;/div&gt;customer.html" style="ellipse;whiteSpace=wrap;html=1;" parent="1" vertex="1">
          <mxGeometry x="80" y="280" width="120" height="60" as="geometry" />
        </mxCell>
        <mxCell id="_hJp1TgORk9aVQzra_ik-51" style="edgeStyle=orthogonalEdgeStyle;rounded=0;orthogonalLoop=1;jettySize=auto;html=1;exitX=0.5;exitY=1;exitDx=0;exitDy=0;entryX=0.5;entryY=0;entryDx=0;entryDy=0;startArrow=classic;startFill=1;" edge="1" parent="1" source="YcM32KmTqc_H7fKUBVU9-11" target="YcM32KmTqc_H7fKUBVU9-2">
          <mxGeometry relative="1" as="geometry" />
        </mxCell>
        <mxCell id="YcM32KmTqc_H7fKUBVU9-11" value="&lt;div&gt;&lt;b&gt;About Us Page:&lt;/b&gt;&lt;/div&gt;about.html" style="ellipse;whiteSpace=wrap;html=1;" parent="1" vertex="1">
          <mxGeometry x="275" y="50" width="130" height="60" as="geometry" />
        </mxCell>
        <mxCell id="YcM32KmTqc_H7fKUBVU9-12" value="&lt;div&gt;&lt;b&gt;Show shopping cart:&lt;/b&gt;&lt;/div&gt;shoppingCart.html" style="ellipse;whiteSpace=wrap;html=1;" parent="1" vertex="1">
          <mxGeometry y="555" width="160" height="60" as="geometry" />
        </mxCell>
        <mxCell id="YcM32KmTqc_H7fKUBVU9-41" value="&lt;b&gt;Categories:&lt;/b&gt;&lt;div&gt;- Category: Seed, Turtle, Tiny Turtle, Shellfish&lt;/div&gt;&lt;div&gt;- Type: Grass, Poison, Water&lt;/div&gt;" style="rounded=0;whiteSpace=wrap;html=1;align=left;fillColor=#dae8fc;strokeColor=#6c8ebf;verticalAlign=top;" parent="1" vertex="1">
          <mxGeometry x="360" y="610" width="360" height="60" as="geometry" />
        </mxCell>
        <mxCell id="YcM32KmTqc_H7fKUBVU9-42" value="&lt;b&gt;Product:&lt;/b&gt;&lt;div&gt;- ID&lt;/div&gt;&lt;div&gt;- Name&lt;/div&gt;&lt;div&gt;- Description&amp;nbsp;&lt;/div&gt;&lt;div&gt;- Type&lt;/div&gt;&lt;div&gt;- Price&lt;/div&gt;" style="rounded=0;whiteSpace=wrap;html=1;align=left;fillColor=#dae8fc;strokeColor=#6c8ebf;verticalAlign=top;" parent="1" vertex="1">
          <mxGeometry x="820" y="320" width="80" height="100" as="geometry" />
        </mxCell>
        <mxCell id="_hJp1TgORk9aVQzra_ik-18" style="edgeStyle=orthogonalEdgeStyle;rounded=0;orthogonalLoop=1;jettySize=auto;html=1;exitX=0.5;exitY=1;exitDx=0;exitDy=0;entryX=0.5;entryY=0;entryDx=0;entryDy=0;fillColor=#ffe6cc;strokeColor=#d79b00;startArrow=classic;startFill=1;" edge="1" parent="1" source="_hJp1TgORk9aVQzra_ik-6" target="_hJp1TgORk9aVQzra_ik-11">
          <mxGeometry relative="1" as="geometry" />
        </mxCell>
        <mxCell id="_hJp1TgORk9aVQzra_ik-22" style="edgeStyle=orthogonalEdgeStyle;rounded=0;orthogonalLoop=1;jettySize=auto;html=1;exitX=1;exitY=1;exitDx=0;exitDy=0;fillColor=#dae8fc;strokeColor=#6c8ebf;entryX=0.5;entryY=1;entryDx=0;entryDy=0;startArrow=classic;startFill=1;" edge="1" parent="1" source="_hJp1TgORk9aVQzra_ik-6" target="YcM32KmTqc_H7fKUBVU9-7">
          <mxGeometry relative="1" as="geometry">
            <mxPoint x="870" y="340" as="targetPoint" />
            <Array as="points">
              <mxPoint x="507" y="440" />
              <mxPoint x="871" y="440" />
            </Array>
          </mxGeometry>
        </mxCell>
        <mxCell id="_hJp1TgORk9aVQzra_ik-6" value="&lt;div&gt;&lt;b&gt;Main Category #1:&lt;/b&gt;&lt;/div&gt;typeList.html" style="ellipse;whiteSpace=wrap;html=1;" vertex="1" parent="1">
          <mxGeometry x="360" y="360" width="160" height="60" as="geometry" />
        </mxCell>
        <mxCell id="_hJp1TgORk9aVQzra_ik-19" style="edgeStyle=orthogonalEdgeStyle;rounded=0;orthogonalLoop=1;jettySize=auto;html=1;exitX=0.5;exitY=1;exitDx=0;exitDy=0;entryX=0.5;entryY=0;entryDx=0;entryDy=0;fillColor=#ffe6cc;strokeColor=#d79b00;startArrow=classic;startFill=1;" edge="1" parent="1" source="_hJp1TgORk9aVQzra_ik-7" target="_hJp1TgORk9aVQzra_ik-17">
          <mxGeometry relative="1" as="geometry" />
        </mxCell>
        <mxCell id="_hJp1TgORk9aVQzra_ik-23" style="edgeStyle=orthogonalEdgeStyle;rounded=0;orthogonalLoop=1;jettySize=auto;html=1;exitX=1;exitY=1;exitDx=0;exitDy=0;entryX=0.5;entryY=1;entryDx=0;entryDy=0;fillColor=#dae8fc;strokeColor=#6c8ebf;startArrow=classic;startFill=1;" edge="1" parent="1" source="_hJp1TgORk9aVQzra_ik-7" target="YcM32KmTqc_H7fKUBVU9-7">
          <mxGeometry relative="1" as="geometry">
            <Array as="points">
              <mxPoint x="687" y="440" />
              <mxPoint x="870" y="440" />
            </Array>
          </mxGeometry>
        </mxCell>
        <mxCell id="_hJp1TgORk9aVQzra_ik-7" value="&lt;div&gt;&lt;b&gt;Main Category #2:&lt;/b&gt;&lt;/div&gt;categoryList.html" style="ellipse;whiteSpace=wrap;html=1;" vertex="1" parent="1">
          <mxGeometry x="560" y="360" width="160" height="60" as="geometry" />
        </mxCell>
        <mxCell id="_hJp1TgORk9aVQzra_ik-21" style="edgeStyle=orthogonalEdgeStyle;rounded=0;orthogonalLoop=1;jettySize=auto;html=1;exitX=0.5;exitY=1;exitDx=0;exitDy=0;entryX=0.5;entryY=1;entryDx=0;entryDy=0;fillColor=#dae8fc;strokeColor=#6c8ebf;startArrow=classic;startFill=1;" edge="1" parent="1" source="_hJp1TgORk9aVQzra_ik-11" target="YcM32KmTqc_H7fKUBVU9-7">
          <mxGeometry relative="1" as="geometry">
            <Array as="points">
              <mxPoint x="440" y="600" />
              <mxPoint x="800" y="600" />
            </Array>
          </mxGeometry>
        </mxCell>
        <mxCell id="_hJp1TgORk9aVQzra_ik-11" value="&lt;div&gt;&lt;b&gt;Subcategories:&lt;/b&gt;&lt;/div&gt;&lt;div&gt;grass.html&lt;/div&gt;&lt;div&gt;poison.html&lt;/div&gt;&lt;div&gt;grass.html&lt;/div&gt;" style="ellipse;whiteSpace=wrap;html=1;" vertex="1" parent="1">
          <mxGeometry x="360" y="490" width="160" height="90" as="geometry" />
        </mxCell>
        <mxCell id="_hJp1TgORk9aVQzra_ik-20" style="edgeStyle=orthogonalEdgeStyle;rounded=0;orthogonalLoop=1;jettySize=auto;html=1;exitX=0.5;exitY=1;exitDx=0;exitDy=0;entryX=0.5;entryY=1;entryDx=0;entryDy=0;fillColor=#dae8fc;strokeColor=#6c8ebf;startArrow=classic;startFill=1;" edge="1" parent="1" source="_hJp1TgORk9aVQzra_ik-17" target="YcM32KmTqc_H7fKUBVU9-7">
          <mxGeometry relative="1" as="geometry">
            <Array as="points">
              <mxPoint x="640" y="600" />
              <mxPoint x="800" y="600" />
            </Array>
          </mxGeometry>
        </mxCell>
        <mxCell id="_hJp1TgORk9aVQzra_ik-17" value="&lt;div&gt;&lt;b&gt;Subcategories:&lt;/b&gt;&lt;/div&gt;&lt;div&gt;seed.html&lt;/div&gt;&lt;div&gt;tiny-turtle.html&lt;/div&gt;&lt;div&gt;turtle.html&lt;/div&gt;&lt;div&gt;shellfish.html&lt;/div&gt;" style="ellipse;whiteSpace=wrap;html=1;" vertex="1" parent="1">
          <mxGeometry x="560" y="490" width="160" height="90" as="geometry" />
        </mxCell>
        <mxCell id="_hJp1TgORk9aVQzra_ik-29" value="link to product (and back)" style="text;html=1;align=center;verticalAlign=middle;whiteSpace=wrap;rounded=0;fillColor=#dae8fc;strokeColor=#6c8ebf;" vertex="1" parent="1">
          <mxGeometry x="700" y="570" width="100" height="30" as="geometry" />
        </mxCell>
        <mxCell id="_hJp1TgORk9aVQzra_ik-30" value="link to categories from main page&lt;div&gt;(and back)&lt;/div&gt;" style="text;html=1;align=center;verticalAlign=middle;whiteSpace=wrap;rounded=0;fillColor=#f8cecc;strokeColor=#b85450;" vertex="1" parent="1">
          <mxGeometry x="414" y="180" width="110" height="40" as="geometry" />
        </mxCell>
        <mxCell id="_hJp1TgORk9aVQzra_ik-35" value="Link from main category to sub category" style="text;html=1;align=center;verticalAlign=middle;whiteSpace=wrap;rounded=0;fillColor=#ffe6cc;strokeColor=#d79b00;" vertex="1" parent="1">
          <mxGeometry x="640" y="447.5" width="140" height="25" as="geometry" />
        </mxCell>
        <mxCell id="_hJp1TgORk9aVQzra_ik-40" value="Link to/from main list" style="text;html=1;align=center;verticalAlign=middle;whiteSpace=wrap;rounded=0;fillColor=#d5e8d4;strokeColor=#82b366;" vertex="1" parent="1">
          <mxGeometry x="420" y="310" width="120" height="30" as="geometry" />
        </mxCell>
        <mxCell id="_hJp1TgORk9aVQzra_ik-55" value="Back to main page" style="text;html=1;align=center;verticalAlign=middle;whiteSpace=wrap;rounded=0;fillColor=#e1d5e7;strokeColor=#9673a6;" vertex="1" parent="1">
          <mxGeometry x="-100" y="410" width="110" height="30" as="geometry" />
        </mxCell>
      </root>
    </mxGraphModel>
  </diagram>
</mxfile>
